<svg xmlns="http://www.w3.org/2000/svg" width="56.375" height="78.875" viewBox="0 0 56.375 78.875">
  <defs>
    <style>
      .cls-1 {
        fill: #fff;
        fill-rule: evenodd;
      }
    </style>
  </defs>
  <path class="cls-1" d="M142.379,421.586l-4.8,7.7-23.949-14.91,4.794-7.7a7.256,7.256,0,0,1,9.995-2.326l11.633,7.242A7.257,7.257,0,0,1,142.379,421.586Zm-28.792,46.156-23.9-14.907L111.81,417.38l23.9,14.919Zm3.226-41.385a2.317,2.317,0,0,0-3.214.636l-15.725,25.19a2.3,2.3,0,0,0,.849,3.161,2.334,2.334,0,0,0,3.217-.614l15.721-25.2A2.333,2.333,0,0,0,116.813,426.357Zm8.658,5.4a2.331,2.331,0,0,0-3.218.634l-15.728,25.2a2.408,2.408,0,0,0,4.075,2.541l15.728-25.187A2.349,2.349,0,0,0,125.471,431.759Zm-24.636,44.7a14.4,14.4,0,0,0-13.3-8.284L87.1,457.062l23.876,14.9ZM94.1,472.437a11.326,11.326,0,0,1,4.394,5.056l-10.421,4.621-0.445-11.389A11.368,11.368,0,0,1,94.1,472.437Z" transform="translate(-87.094 -403.25)"/>
</svg>
