<svg xmlns="http://www.w3.org/2000/svg" width="70.469" height="60.125" viewBox="0 0 70.469 60.125">
  <defs>
    <style>
      .cls-1 {
        fill: #fff;
        fill-rule: evenodd;
      }
    </style>
  </defs>
  <path class="cls-1" d="M85.462,600.2a8.276,8.276,0,0,0-8.29,8.3v31.1a8.27,8.27,0,0,0,8.29,8.292h18.655V654.1h-8.29a2.077,2.077,0,0,0-2.075,2.075v4.149h37.319v-4.149A2.077,2.077,0,0,0,129,654.1h-8.29v-6.214h18.655a8.27,8.27,0,0,0,8.29-8.292V608.5a8.277,8.277,0,0,0-8.29-8.3h-53.9Zm2.075,8.3h49.749a2.064,2.064,0,0,1,2.075,2.066v26.956a2.07,2.07,0,0,1-2.075,2.073H87.537a2.077,2.077,0,0,1-2.075-2.073V610.565a2.07,2.07,0,0,1,2.075-2.066h0Z" transform="translate(-77.188 -600.188)"/>
</svg>
