<svg xmlns="http://www.w3.org/2000/svg" width="77.187" height="70.375" viewBox="0 0 77.187 70.375">
  <defs>
    <style>
      .cls-1 {
        fill: #fff;
        fill-rule: evenodd;
      }
    </style>
  </defs>
  <path class="cls-1" d="M111.439,776.591a5.588,5.588,0,0,0-5.531,4.532h-0.144L87.607,801.562h9.078l12.559-14.12a5.649,5.649,0,0,0,2.195.5,5.712,5.712,0,0,0,2.207-.5l12.545,14.12h9.093l-18.17-20.439h-0.145a5.566,5.566,0,0,0-5.53-4.532h0ZM78.53,806.1a4.538,4.538,0,0,0-4.546,4.547v2.269a4.485,4.485,0,0,0,4.192,4.47l7.159,25.039c2.272,4.543,4.546,4.543,6.8,4.543H133.01c2.274,0,4.532,0,6.806-4.543l7.173-25.039a4.485,4.485,0,0,0,4.178-4.47v-2.269a4.528,4.528,0,0,0-4.533-4.547H78.53ZM91.3,817.448h1.129a5.845,5.845,0,0,1,5.531,4.257l3.192,14.123a3.463,3.463,0,0,1-3.613,4.322H96.4a5.9,5.9,0,0,1-5.53-4.322l-3.192-14.123a3.428,3.428,0,0,1,3.626-4.257h0Zm21.282,0a4.527,4.527,0,0,1,4.532,4.546v13.621a4.539,4.539,0,0,1-9.078,0V821.994a4.537,4.537,0,0,1,4.546-4.546h0Zm20.14,0h1.143a3.42,3.42,0,0,1,3.612,4.257l-3.192,14.123a5.894,5.894,0,0,1-5.532,4.322H127.61A3.465,3.465,0,0,1,124,835.828l3.192-14.123a5.848,5.848,0,0,1,5.532-4.257h0Z" transform="translate(-73.969 -776.594)"/>
</svg>
